<svg xmlns="http://www.w3.org/2000/svg" width="274" height="125" viewBox="0 0 274 125">
  <path d="M53.2 21.1h2.9v36.8h-2.9V25.3h-0.1L39.2 42.5 25.3 25.3h-0.1v32.6h-2.9V21.1h2.9l14 17.1L53.2 21.1z"/>
  <path d="M67.1 57.8H64.2V21.1h2.9V57.8z"/>
  <path d="M84.6 21.1c9 0 12.2 4.6 12.2 9.5 0 4.3-2.3 7.2-7 8.9 1.7 0.9 3.2 3 4.9 5.6l8.3 12.7h-3.3l-6.4-10.1c-4.4-6.9-5.8-7.5-10.3-7.5h-4.9v17.6h-2.9V21.1H84.6zM78 37.9h6.1c6.5 0 9.6-2.8 9.6-7.2 0-4.1-3-7.2-9.7-7.2h-6V37.9z"/>
  <path d="M253.8 57.8h-3l-5.8-12.7h-17.9l-5.8 12.7h-3l17-37h1.6L253.8 57.8zM236 25.5l-7.9 17.3h15.8L236 25.5z"/>
  <path d="M55.4 73.2c-4.7-2.5-8.9-3.6-13.4-3.6 -9.4 0-16.5 7.2-16.5 16.7 0 9.7 7 16.6 16.9 16.6 4.3 0 8.3-1.2 13.4-3.8v3c-4.4 2.4-9 3.5-13.4 3.5 -11.5 0-20.1-8.3-20.1-19.3 0-11.6 9.5-19.4 19.8-19.4 4.2 0 8.7 1 13.3 3.2v3.2H55.4z"/>
  <path d="M71.3 67.3c9.2 0 12.5 4.7 12.5 9.7 0 4.4-2.4 7.5-7.2 9.2 1.8 1 3.2 3.1 5 5.8l8.5 13.1h-3.4l-6.6-10.3c-4.5-7.2-6-7.8-10.5-7.8h-5.1v18.1h-3V67.3H71.3zM64.5 84.5h6.3c6.6 0 9.9-2.9 9.9-7.4 0-4.3-3-7.4-10-7.4h-6.1v14.8H64.5z"/>
  <path d="M115.1 69.8H97.4v15.1h17.2v2.4H97.4v15.4h18.1v2.4H94.5V67.3h20.6V69.8z"/>
  <path d="M155.7 105.1h-3l-6-13.1h-18.5l-6 13.1h-3l17.4-38h1.6L155.7 105.1zM137.4 71.8l-8 17.8h16.2L137.4 71.8z"/>
  <path d="M182.2 69.8H168v35.3h-3V69.8h-14.2v-2.4h31.3V69.8z"/>
  <path d="M190.1 105.1h-3V67.3h3V105.1z"/>
  <path d="M211.5 105.5h-0.8l-15.9-38.2h3l13.4 32 13.3-32h3L211.5 105.5z"/>
  <path d="M252.9 69.8h-17.6v15.1h17.2v2.4h-17.2v15.4h18.1v2.4h-21V67.3h20.6V69.8z"/>
  <g>
    <path d="M140 57.8h-3l-5.8-12.7h-17.9l-5.8 12.7h-3l17-37h1.6L140 57.8zM122.2 25.5l-7.9 17.3h15.8L122.2 25.5z"/>
    <path d="M177.1 57.8h-2.4L146.8 25.7v32.1h-2.9V21.1h2.4l27.8 32.1V21.1h2.9V57.8z"/>
    <path d="M198.1 21.1c15.7 0 20.1 10.3 20.1 18.4 0 8.5-5 18.4-19.6 18.4h-13.4V21.1H198.1zM188.2 55.4h10.3c8.9 0 16.7-5.7 16.7-16 0-9.5-6.9-16-16.8-16h-10.2L188.2 55.4 188.2 55.4z"/>
    <path d="M273 125H1V0h272V125zM3.4 122.6h267.1V2.4H3.4V122.6z"/>
  </g>
</svg>